<?xml version="1.0" encoding="utf-8"?>
<svg xmlns="http://www.w3.org/2000/svg" version="1.1" width="1000" height="800">

<line x1="0" y1="0" x2="1000" y2="0" stroke="lightgrey" />
<text x="5" y="-5" fill="lightgrey" >0</text>
<line x1="0" y1="100" x2="1000" y2="100" stroke="lightgrey" />
<text x="5" y="95" fill="lightgrey" >100</text>
<line x1="0" y1="200" x2="1000" y2="200" stroke="lightgrey" />
<text x="5" y="195" fill="lightgrey" >200</text>
<line x1="0" y1="300" x2="1000" y2="300" stroke="lightgrey" />
<text x="5" y="295" fill="lightgrey" >300</text>
<line x1="0" y1="400" x2="1000" y2="400" stroke="lightgrey" />
<text x="5" y="395" fill="lightgrey" >400</text>
<line x1="0" y1="500" x2="1000" y2="500" stroke="lightgrey" />
<text x="5" y="495" fill="lightgrey" >500</text>
<line x1="0" y1="600" x2="1000" y2="600" stroke="lightgrey" />
<text x="5" y="595" fill="lightgrey" >600</text>
<line x1="0" y1="700" x2="1000" y2="700" stroke="lightgrey" />
<text x="5" y="695" fill="lightgrey" >700</text>
<line x1="0" y1="800" x2="1000" y2="800" stroke="lightgrey" />
<text x="5" y="795" fill="lightgrey" >800</text>
<line x1="0" y1="0" x2="0" y2="800" stroke="lightgrey" />
<text x="5" y="15" fill="lightgrey" >0</text>
<line x1="100" y1="0" x2="100" y2="800" stroke="lightgrey" />
<text x="105" y="15" fill="lightgrey" >100</text>
<line x1="200" y1="0" x2="200" y2="800" stroke="lightgrey" />
<text x="205" y="15" fill="lightgrey" >200</text>
<line x1="300" y1="0" x2="300" y2="800" stroke="lightgrey" />
<text x="305" y="15" fill="lightgrey" >300</text>
<line x1="400" y1="0" x2="400" y2="800" stroke="lightgrey" />
<text x="405" y="15" fill="lightgrey" >400</text>
<line x1="500" y1="0" x2="500" y2="800" stroke="lightgrey" />
<text x="505" y="15" fill="lightgrey" >500</text>
<line x1="600" y1="0" x2="600" y2="800" stroke="lightgrey" />
<text x="605" y="15" fill="lightgrey" >600</text>
<line x1="700" y1="0" x2="700" y2="800" stroke="lightgrey" />
<text x="705" y="15" fill="lightgrey" >700</text>
<line x1="800" y1="0" x2="800" y2="800" stroke="lightgrey" />
<text x="805" y="15" fill="lightgrey" >800</text>
<line x1="900" y1="0" x2="900" y2="800" stroke="lightgrey" />
<text x="905" y="15" fill="lightgrey" >900</text>
<line x1="1000" y1="0" x2="1000" y2="800" stroke="lightgrey" />
<text x="1005" y="15" fill="lightgrey" >1000</text>
<polygon points=" 0,25 0,50 50,50 50,25" style="fill:saddlebrown;stroke:black;stroke-width:0" />
<polygon points=" 50,25 50,50 100,50 100,25" style="fill:maroon;stroke:black;stroke-width:0" />
<polygon points=" 100,25 100,50 150,50 150,25" style="fill:firebrick;stroke:black;stroke-width:0" />
<polygon points=" 150,25 150,50 200,50 200,25" style="fill:tomato;stroke:black;stroke-width:0" />
<polygon points=" 200,25 200,50 250,50 250,25" style="fill:salmon;stroke:black;stroke-width:0" />
<polygon points=" 250,25 250,50 300,50 300,25" style="fill:peachpuff;stroke:black;stroke-width:0" />
<polygon points=" 300,25 300,50 350,50 350,25" style="fill:lightgreen;stroke:black;stroke-width:0" />
<polygon points=" 350,25 350,50 400,50 400,25" style="fill:mediumseagreen;stroke:black;stroke-width:0" />
<polygon points=" 400,25 400,50 450,50 450,25" style="fill:limegreen;stroke:black;stroke-width:0" />
<polygon points=" 450,25 450,50 500,50 500,25" style="fill:forestgreen;stroke:black;stroke-width:0" />
<text x="20" y="20" fill="black" >Pas Important</text>
<text x="430" y="20" fill="black" >Important</text>
<line x1="200" y1="200" x2="200" y2="100" stroke="black" />
<text x="200" y="150" fill="black" >0</text>
<line x1="200" y1="200" x2="100" y2="200" stroke="black" />
<text x="150" y="200" fill="black" >0</text>
<line x1="200" y1="200" x2="200" y2="300" stroke="black" />
<text x="200" y="250" fill="black" >0</text>
<line x1="200" y1="200" x2="300" y2="200" stroke="black" />
<text x="250" y="200" fill="black" >0</text>
<line x1="400" y1="200" x2="300" y2="200" stroke="black" />
<text x="350" y="200" fill="black" >0</text>
<line x1="400" y1="200" x2="400" y2="100" stroke="black" />
<text x="400" y="150" fill="black" >0</text>
<line x1="400" y1="200" x2="500" y2="200" stroke="black" />
<text x="450" y="200" fill="black" >0</text>
<line x1="400" y1="200" x2="400" y2="300" stroke="black" />
<text x="400" y="250" fill="black" >0</text>
<circle cx="200" cy="200" r="15" fill="saddlebrown" />
<text x="195" y="205" fill="mediumblue" >A</text>
<text x="200" y="180" fill="black" >0</text>
<circle cx="200" cy="100" r="15" fill="saddlebrown" />
<text x="195" y="105" fill="mediumblue" >B</text>
<text x="200" y="80" fill="black" >0</text>
<circle cx="100" cy="200" r="15" fill="saddlebrown" />
<text x="95" y="205" fill="mediumblue" >C</text>
<text x="100" y="180" fill="black" >1.2372e-038</text>
<circle cx="200" cy="300" r="15" fill="saddlebrown" />
<text x="195" y="305" fill="mediumblue" >D</text>
<text x="200" y="280" fill="black" >4.15833e+021</text>
<circle cx="300" cy="200" r="15" fill="forestgreen" />
<text x="295" y="205" fill="mediumblue" >E</text>
<text x="300" y="180" fill="black" >7.31916e+032</text>
<circle cx="400" cy="200" r="15" fill="saddlebrown" />
<text x="395" y="205" fill="mediumblue" >F</text>
<text x="400" y="180" fill="black" >1.49939e-043</text>
<circle cx="400" cy="100" r="15" fill="saddlebrown" />
<text x="395" y="105" fill="mediumblue" >G</text>
<text x="400" y="80" fill="black" >1.23724e-038</text>
<circle cx="500" cy="200" r="15" fill="saddlebrown" />
<text x="495" y="205" fill="mediumblue" >H</text>
<text x="500" y="180" fill="black" >0</text>
<circle cx="400" cy="300" r="15" fill="saddlebrown" />
<text x="395" y="305" fill="mediumblue" >I</text>
<text x="400" y="280" fill="black" >0</text>
  

<defs>
    <radialGradient id="redball" cx="30%" cy="30%" r="100%" fx="30%" fy="30%">
      <stop offset="0%" style="stop-color:rgb(255,250,250)" />
      <stop offset="3%" style="stop-color:rgb(255,250,250)" />
      <stop offset="7%" style="stop-color:rgb(255,160,160)" />
      <stop offset="70%" style="stop-color:rgb(255,0,0)" />
      <stop offset="100%" style="stop-color:rgb(255,0,0)" />
    </radialGradient>
    <radialGradient id="greenball" cx="30%" cy="30%" r="100%" fx="30%" fy="30%">
      <stop offset="0%" style="stop-color:rgb(250,255,250)" />
      <stop offset="3%" style="stop-color:rgb(250,255,250)" />
      <stop offset="7%" style="stop-color:rgb(160,255,160)" />
      <stop offset="70%" style="stop-color:rgb(0,255,0)" />
      <stop offset="100%" style="stop-color:rgb(0,255,0)" />
    </radialGradient>
    <radialGradient id="blueball" cx="30%" cy="30%" r="100%" fx="30%" fy="30%">
      <stop offset="0%" style="stop-color:rgb(250,250,255)" />
      <stop offset="3%" style="stop-color:rgb(250,250,255)" />
      <stop offset="7%" style="stop-color:rgb(160,160,255)" />
      <stop offset="70%" style="stop-color:rgb(0,0,255)" />
      <stop offset="100%" style="stop-color:rgb(0,255,0)" />
    </radialGradient>
    <radialGradient id="yellowball" cx="30%" cy="30%" r="100%" fx="30%" fy="30%">
      <stop offset="0%" style="stop-color:rgb(255,255,250)" />
      <stop offset="3%" style="stop-color:rgb(255,255,250)" />
      <stop offset="7%" style="stop-color:rgb(255,255,160)" />
      <stop offset="70%" style="stop-color:rgb(255,255,0)" />
      <stop offset="100%" style="stop-color:rgb(255,255,0)" />
    </radialGradient>
    <radialGradient id="greyball" cx="30%" cy="30%" r="100%" fx="30%" fy="30%">
      <stop offset="0%" style="stop-color:rgb(250,250,250)" />
      <stop offset="3%" style="stop-color:rgb(250,250,250)" />
      <stop offset="7%" style="stop-color:rgb(160,160,160)" />
      <stop offset="70%" style="stop-color:rgb(100,100,100)" />
      <stop offset="100%" style="stop-color:rgb(100,100,100)" />
    </radialGradient>
  </defs>


</svg>
